<svg width="14" height="16" viewBox="0 0 14 16" fill="none" xmlns="http://www.w3.org/2000/svg">
<path d="M1 13C0.447715 13 0 13.4477 0 14C0 14.5523 0.447715 15 1 15H8.26756C8.61337 15.5978 9.25972 16 10 16C10.7403 16 11.3866 15.5978 11.7324 15H13C13.5523 15 14 14.5523 14 14C14 13.4477 13.5523 13 13 13H11.7324C11.3866 12.4022 10.7403 12 10 12C9.25972 12 8.61337 12.4022 8.26756 13H1Z" fill="#666666"/>
<path d="M1 7C0.447715 7 0 7.44771 0 8C0 8.55228 0.447715 9 1 9H2.26756C2.61337 9.5978 3.25972 10 4 10C4.74028 10 5.38663 9.5978 5.73244 9H13C13.5523 9 14 8.55228 14 8C14 7.44771 13.5523 7 13 7H5.73244C5.38663 6.4022 4.74028 6 4 6C3.25972 6 2.61337 6.4022 2.26756 7H1Z" fill="#666666"/>
<path d="M0 2C0 1.44771 0.447715 1 1 1H8.26756C8.61337 0.402199 9.25972 0 10 0C10.7403 0 11.3866 0.402199 11.7324 1H13C13.5523 1 14 1.44771 14 2C14 2.55229 13.5523 3 13 3H11.7324C11.3866 3.5978 10.7403 4 10 4C9.25972 4 8.61337 3.5978 8.26756 3H1C0.447715 3 0 2.55229 0 2Z" fill="#666666"/>
</svg>
