<svg width="46" height="46" viewBox="0 0 46 46" fill="none" xmlns="http://www.w3.org/2000/svg">
<rect x="0.7" y="0.7" width="44.6" height="44.6" rx="11.3" fill="#CDF3E2"/>
<rect x="0.7" y="0.7" width="44.6" height="44.6" rx="11.3" stroke="#012716" stroke-width="1.4"/>
<path d="M16.4298 19.8664C16.5642 19.732 16.748 19.6471 16.9602 19.6471C17.3703 19.6471 17.7097 19.9866 17.7097 20.3967L17.7097 28.2314L25.5444 28.2314C25.9546 28.2314 26.294 28.5708 26.294 28.981C26.294 29.3911 25.9546 29.7305 25.5444 29.7305L16.9602 29.7305C16.55 29.7305 16.2106 29.3911 16.2106 28.981L16.2106 20.3967C16.2106 20.1845 16.2955 20.0007 16.4298 19.8664Z" fill="#012716"/>
<path d="M16.5502 28.3304L28.4508 16.4298C28.7407 16.1399 29.2215 16.1399 29.5114 16.4298C29.8013 16.7197 29.8013 17.2006 29.5114 17.4905L17.6108 29.3911C17.3209 29.681 16.8401 29.681 16.5502 29.3911C16.2602 29.1012 16.2602 28.6203 16.5502 28.3304Z" fill="#012716"/>
</svg>
