<svg width="46" height="46" viewBox="0 0 46 46" fill="none" xmlns="http://www.w3.org/2000/svg">
<rect x="0.7" y="0.7" width="44.6" height="44.6" rx="11.3" fill="#FAD7DA"/>
<rect x="0.7" y="0.7" width="44.6" height="44.6" rx="11.3" stroke="#2E0B0E" stroke-width="1.4"/>
<path d="M29.5111 26.0748C29.3767 26.2091 29.1929 26.294 28.9808 26.294C28.5706 26.294 28.2312 25.9546 28.2312 25.5445L28.2312 17.7097L20.3965 17.7097C19.9864 17.7097 19.6469 17.3703 19.6469 16.9602C19.6469 16.5501 19.9864 16.2106 20.3965 16.2106L28.9808 16.2106C29.3909 16.2106 29.7303 16.5501 29.7303 16.9602L29.7303 25.5445C29.7303 25.7566 29.6454 25.9404 29.5111 26.0748Z" fill="#2E0B0E"/>
<path d="M29.3908 17.6107L17.4902 29.5113C17.2002 29.8012 16.7194 29.8012 16.4295 29.5113C16.1396 29.2214 16.1396 28.7406 16.4295 28.4507L28.3301 16.5501C28.62 16.2601 29.1009 16.2601 29.3908 16.5501C29.6807 16.84 29.6807 17.3208 29.3908 17.6107Z" fill="#2E0B0E"/>
</svg>
