<svg width="24" height="24" viewBox="0 0 24 24" fill="none" xmlns="http://www.w3.org/2000/svg">
<g clip-path="url(#clip0_365_2294)">
<path d="M23.9918 6.80812C24.0026 6.2535 23.8534 4.96012 22.1674 4.50975L5.23576 1.12017C3.99488 1.12017 2.98576 2.12927 2.98576 3.37017V6.38667L2.23576 6.3848C0.999385 6.39002 -0.00561523 7.39612 -0.00561523 8.63402V20.6295C-0.00561523 21.8704 1.00351 22.8795 2.24438 22.8795H21.7553C22.9962 22.8795 24.0053 21.8704 24.0053 20.6295L23.9918 6.80812ZM4.48574 3.37015C4.48574 2.97827 4.78761 2.65617 5.17049 2.62317L21.7174 5.97192C21.7234 5.97492 21.5944 6.39227 20.9936 6.38442H4.48574V3.37015ZM22.5056 20.6299C22.5056 21.0439 22.1696 21.3799 21.7556 21.3799H2.24434C1.83034 21.3799 1.49434 21.0439 1.49434 20.6299V8.63405C1.49434 8.22005 1.83034 7.88405 2.24434 7.88405H20.9958C21.732 7.88405 22.5052 7.63317 22.5052 7.13667V20.6299H22.5056ZM4.49584 13.1367C3.66746 13.1367 2.99584 13.8083 2.99584 14.6367C2.99584 15.465 3.66746 16.1367 4.49584 16.1367C5.32421 16.1367 5.99584 15.465 5.99584 14.6367C5.99584 13.8083 5.32421 13.1367 4.49584 13.1367Z" fill="#024125"/>
</g>
<defs>
<clipPath id="clip0_365_2294">
<rect width="24" height="24" fill="white"/>
</clipPath>
</defs>
</svg>
