<svg
                width="36"
                height="34"
                viewBox="0 0 36 34"
                fill="none"
                xmlns="http://www.w3.org/2000/svg"
              >
                <path
                  d="M34.1617 0.0511169L20.1702 10.4294L22.7744 4.29447L34.1617 0.0511169Z"
                  fill="#E17726"
                />
                <path
                  d="M1.83826 0.0511169L15.7276 10.5317L13.2255 4.34559L1.83826 0.0511169ZM29.1063 24.1309L25.3787 29.8568L33.3957 32.0552L35.6936 24.2842C35.6425 24.2842 29.1063 24.1309 29.1063 24.1309ZM0.357408 24.2842L2.65528 32.0552L10.6212 29.8568L6.89358 24.1309L0.357408 24.2842Z"
                  fill="#E27625"
                />
                <path
                  d="M10.1617 14.5194L7.96592 17.8937L15.8297 18.2004L15.5744 9.71369L10.1617 14.5194ZM25.8383 14.5194L20.3234 9.61144L20.1191 18.2515L28.034 17.8937C28.034 17.8425 25.8383 14.5194 25.8383 14.5194ZM10.6212 29.8568L15.4212 27.5562L11.2851 24.3354L10.6212 29.8568ZM20.6297 27.5051L25.3787 29.8057L24.7149 24.2842C24.7659 24.3354 20.6297 27.5051 20.6297 27.5051Z"
                  fill="#E27625"
                />
                <path
                  d="M25.3787 29.8568L20.6297 27.5562L21.0383 30.6748L20.9872 32.0041L25.3787 29.8568ZM10.6212 29.8568L15.0638 31.953L15.0127 30.6237L15.4212 27.5051L10.6212 29.8568Z"
                  fill="#D5BFB2"
                />
                <path
                  d="M15.1149 22.2904L11.1829 21.1145L13.9915 19.8364L15.1149 22.2904ZM20.8851 22.2904L22.0595 19.8364L24.868 21.1145L20.8851 22.2904Z"
                  fill="#233447"
                />
                <path
                  d="M10.6212 29.8568L11.3361 24.1309L6.94464 24.2842C6.89358 24.2842 10.6212 29.8568 10.6212 29.8568ZM24.7149 24.1309L25.3787 29.8568L29.1063 24.2842L24.7149 24.1309ZM28.034 17.8425L20.1191 18.2004L20.834 22.2393L22.0085 19.7853L24.817 21.0634C24.868 21.1145 28.034 17.8425 28.034 17.8425ZM11.1829 21.1145L13.9915 19.8364L15.1659 22.2904L15.8808 18.2515L7.96592 17.8937L11.1829 21.1145Z"
                  fill="#CC6228"
                />
                <path
                  d="M7.96592 17.8425L11.2851 24.2842L11.1829 21.0634C11.1829 21.1145 7.96592 17.8425 7.96592 17.8425ZM24.868 21.1145L24.7149 24.3354L28.034 17.8937C28.034 17.8425 24.868 21.1145 24.868 21.1145ZM15.8808 18.2004L15.1149 22.2393L16.034 27.045L16.2383 20.7055L15.8808 18.2004ZM20.1702 18.2004L19.7617 20.7055L19.9659 27.045L20.8851 22.2393L20.1702 18.2004Z"
                  fill="#E27525"
                />
                <path
                  d="M20.8851 22.2904L19.9659 27.0961L20.6297 27.5562L24.7149 24.3354L24.868 21.1145L20.8851 22.2904ZM11.1829 21.1145L11.2851 24.3354L15.4212 27.5562L16.0851 27.0961L15.1659 22.2904L11.1829 21.1145Z"
                  fill="#F5841F"
                />
                <path
                  d="M20.9872 31.953L21.0383 30.6237L20.6808 30.317H15.3702L15.0127 30.6237L15.0638 31.953L10.6212 29.8568L12.2042 31.135L15.3702 33.2822H20.7829L23.9489 31.0838L25.4808 29.8057L20.9872 31.953Z"
                  fill="#C0AC9D"
                />
                <path
                  d="M20.6297 27.5051L19.9659 27.045H16.0851L15.4212 27.5051L15.0127 30.6237L15.3702 30.317H20.6808L21.0383 30.6237L20.6297 27.5051Z"
                  fill="#161616"
                />
                <path
                  d="M34.7744 11.1452L35.9489 5.41921L34.1617 0.0511169L20.6297 10.1227L25.8383 14.5194L33.1915 16.6667L34.8255 14.775L34.1106 14.2638L35.234 13.2413L34.3659 12.5767L35.4893 11.7076L34.7744 11.1452ZM0.0510254 5.41921L1.22549 11.1452L0.5106 11.7076L1.634 12.5767L0.765919 13.2413L1.88932 14.2638L1.17443 14.775L2.80847 16.6667L10.1617 14.5194L15.3702 10.1227L1.83826 0.0511169L0.0510254 5.41921Z"
                  fill="#763E1A"
                />
                <path
                  d="M33.1915 16.6667L25.8383 14.5194L28.034 17.8425L24.7149 24.2842L29.1063 24.2331H35.6425L33.1915 16.6667ZM10.1617 14.5194L2.80847 16.6667L0.357408 24.2842L6.89358 24.2842L11.2851 24.3354L7.96592 17.8937L10.1617 14.5194ZM20.1702 18.2004L20.6297 10.0716L22.7744 4.29447H13.2255L15.3702 10.0716L15.8297 18.2004L16.034 20.7566L16.034 27.045H19.9659L19.9659 20.7566L20.1702 18.2004Z"
                  fill="#F5841F"
                />
                <path
                  d="M34.1617 0.0511169L20.1702 10.4294L22.7744 4.29447M34.1617 0.0511169L22.7744 4.29447M34.1617 0.0511169L35.9489 5.41921L34.7744 11.1452L35.4893 11.7076L34.3659 12.5767L35.234 13.2413L34.1106 14.2638L34.8255 14.775L33.1915 16.6667M34.1617 0.0511169L20.6297 10.1227L25.8383 14.5194M22.7744 4.29447L20.6297 10.0716L20.1702 18.2004M22.7744 4.29447H13.2255L15.3702 10.0716L15.8297 18.2004M1.83826 0.0511169L15.7276 10.5317L13.2255 4.3456L1.83826 0.0511169ZM1.83826 0.0511169L15.3702 10.1227L10.1617 14.5194M1.83826 0.0511169L0.0510254 5.41921L1.22549 11.1452L0.5106 11.7076L1.634 12.5767L0.765919 13.2413L1.88932 14.2638L1.17443 14.775L2.80847 16.6667M25.3787 29.8568L29.1063 24.1309C29.1063 24.1309 35.6425 24.2842 35.6936 24.2842L33.3957 32.0552L25.3787 29.8568ZM25.3787 29.8568L20.6297 27.5562M25.3787 29.8568L20.9872 32.0041L21.0383 30.6748L20.6297 27.5562M25.3787 29.8568L24.7149 24.1309L29.1063 24.2842L25.3787 29.8568ZM0.357408 24.2842L2.65528 32.0552L10.6212 29.8568M0.357408 24.2842L6.89358 24.1309L10.6212 29.8568M0.357408 24.2842L2.80847 16.6667M0.357408 24.2842L6.89358 24.2842L11.2851 24.3354M10.6212 29.8568L15.4212 27.5562M10.6212 29.8568L11.2851 24.3354M10.6212 29.8568L15.0638 31.953L15.0127 30.6237M10.6212 29.8568L15.4212 27.5051M10.6212 29.8568L11.3361 24.1309L6.94464 24.2842C6.89358 24.2842 10.6212 29.8568 10.6212 29.8568ZM10.6212 29.8568L12.2042 31.135L15.3702 33.2822H20.7829L23.9489 31.0838L25.4808 29.8057L20.9872 31.953L21.0383 30.6237M10.1617 14.5194L7.96592 17.8937M10.1617 14.5194L15.5744 9.71369L15.8297 18.2004M10.1617 14.5194L2.80847 16.6667M7.96592 17.8937L15.8297 18.2004M7.96592 17.8937L15.8808 18.2515L15.1659 22.2904M7.96592 17.8937L11.1829 21.1145M7.96592 17.8937L11.2851 24.3354M15.8297 18.2004L16.034 20.7566L16.034 27.045M25.8383 14.5194L20.3234 9.61144L20.1191 18.2515L28.034 17.8937M25.8383 14.5194C25.8383 14.5194 28.034 17.8425 28.034 17.8937M25.8383 14.5194L33.1915 16.6667M25.8383 14.5194L28.034 17.8425M28.034 17.8937L24.7149 24.3354M28.034 17.8937C28.034 17.8425 24.868 21.1145 24.868 21.1145M15.4212 27.5562L11.2851 24.3354M15.4212 27.5562L16.0851 27.0961L15.1659 22.2904M11.2851 24.3354L11.1829 21.1145M20.6297 27.5051L25.3787 29.8057L24.7149 24.2842M20.6297 27.5051C20.6297 27.5051 24.7659 24.3354 24.7149 24.2842M20.6297 27.5051L19.9659 27.045M20.6297 27.5051L21.0383 30.6237M24.7149 24.2842L28.034 17.8425M24.7149 24.2842L29.1063 24.2331H35.6425L33.1915 16.6667M20.6297 27.5562L19.9659 27.0961L20.8851 22.2904M20.6297 27.5562L24.7149 24.3354M15.0127 30.6237L15.4212 27.5051M15.0127 30.6237L15.3702 30.317H20.6808L21.0383 30.6237M15.4212 27.5051L16.0851 27.045H19.9659M11.1829 21.1145L15.1149 22.2904L13.9915 19.8364M11.1829 21.1145L13.9915 19.8364M11.1829 21.1145L15.1659 22.2904M13.9915 19.8364L15.1659 22.2904M20.8851 22.2904L22.0595 19.8364L24.868 21.1145M20.8851 22.2904L24.868 21.1145M24.868 21.1145L24.7149 24.3354M28.034 17.8425L20.1191 18.2004L20.834 22.2393L22.0085 19.7853L24.817 21.0634C24.868 21.1145 28.034 17.8425 28.034 17.8425ZM16.034 27.045L15.1149 22.2393L15.8808 18.2004L16.2383 20.7055L16.034 27.045ZM16.034 27.045H19.9659M20.1702 18.2004L19.7617 20.7055L19.9659 27.045M20.1702 18.2004L20.8851 22.2393L19.9659 27.045M20.1702 18.2004L19.9659 20.7566L19.9659 27.045M7.96592 17.8425L11.2851 24.2842L11.1829 21.0634C11.1829 21.1145 7.96592 17.8425 7.96592 17.8425Z"
                  stroke="#F5841F"
                  stroke-width="0.25"
                  stroke-linecap="round"
                  stroke-linejoin="round"
                />
              </svg>