<svg width="36" height="36" viewBox="0 0 36 36" fill="none" xmlns="http://www.w3.org/2000/svg">
<path d="M18 36C27.9411 36 36 27.9411 36 18C36 8.05887 27.9411 0 18 0C8.05887 0 0 8.05887 0 18C0 27.9411 8.05887 36 18 36Z" fill="url(#paint0_linear_9_514)"/>
<path d="M30.893 18.2512H27.7116C27.7116 11.8047 22.4372 6.53023 15.9907 6.53023C9.54419 6.53023 4.35349 11.6372 4.26977 18C4.10233 24.5302 10.2977 30.307 16.9116 30.307H17.7488C23.5256 30.307 31.3953 25.786 32.5674 20.2605C32.7349 19.1721 31.8977 18.2512 30.893 18.2512ZM11.2186 18.5023C11.2186 19.3395 10.5488 20.093 9.62791 20.093C8.7907 20.093 8.03721 19.4233 8.03721 18.5023V15.9907C8.03721 15.1535 8.70698 14.4 9.62791 14.4C10.4651 14.4 11.2186 15.0698 11.2186 15.9907V18.5023ZM16.7442 18.5023C16.7442 19.3395 16.0744 20.093 15.1535 20.093C14.3163 20.093 13.5628 19.4233 13.5628 18.5023V15.9907C13.5628 15.1535 14.2326 14.4 15.1535 14.4C15.9907 14.4 16.7442 15.0698 16.7442 15.9907V18.5023Z" fill="url(#paint1_linear_9_514)"/>
<defs>
<linearGradient id="paint0_linear_9_514" x1="18" y1="0" x2="18" y2="36" gradientUnits="userSpaceOnUse">
<stop stop-color="#534BB1"/>
<stop offset="1" stop-color="#551BF9"/>
</linearGradient>
<linearGradient id="paint1_linear_9_514" x1="18.383" y1="6.51065" x2="18.383" y2="30.2553" gradientUnits="userSpaceOnUse">
<stop stop-color="white"/>
<stop offset="1" stop-color="white" stop-opacity="0.82"/>
</linearGradient>
</defs>
</svg>
