<svg width="19" height="15" viewBox="0 0 19 15" fill="none" xmlns="http://www.w3.org/2000/svg">
<path d="M12.6665 3C12.6665 4.65685 11.3234 6 9.6665 6C8.00965 6 6.6665 4.65685 6.6665 3C6.6665 1.34315 8.00965 0 9.6665 0C11.3234 0 12.6665 1.34315 12.6665 3Z" fill="#B0B0B0"/>
<path d="M17.6665 5C17.6665 6.10457 16.7711 7 15.6665 7C14.5619 7 13.6665 6.10457 13.6665 5C13.6665 3.89543 14.5619 3 15.6665 3C16.7711 3 17.6665 3.89543 17.6665 5Z" fill="#B0B0B0"/>
<path d="M13.6665 12C13.6665 9.79086 11.8756 8 9.6665 8C7.45737 8 5.6665 9.79086 5.6665 12V15H13.6665V12Z" fill="#B0B0B0"/>
<path d="M5.6665 5C5.6665 6.10457 4.77107 7 3.6665 7C2.56193 7 1.6665 6.10457 1.6665 5C1.6665 3.89543 2.56193 3 3.6665 3C4.77107 3 5.6665 3.89543 5.6665 5Z" fill="#B0B0B0"/>
<path d="M15.6665 15V12C15.6665 10.9459 15.3947 9.9552 14.9172 9.09432C15.1567 9.03275 15.4078 9 15.6665 9C17.3234 9 18.6665 10.3431 18.6665 12V15H15.6665Z" fill="#B0B0B0"/>
<path d="M4.41577 9.09432C3.93835 9.9552 3.6665 10.9459 3.6665 12V15H0.666504V12C0.666504 10.3431 2.00965 9 3.6665 9C3.92521 9 4.17627 9.03275 4.41577 9.09432Z" fill="#B0B0B0"/>
</svg>
