<svg width="19" height="15" viewBox="0 0 19 15" fill="none" xmlns="http://www.w3.org/2000/svg">
<path d="M12.667 3C12.667 4.65685 11.3238 6 9.66699 6C8.01014 6 6.66699 4.65685 6.66699 3C6.66699 1.34315 8.01014 0 9.66699 0C11.3238 0 12.667 1.34315 12.667 3Z" fill="#6A93FF"/>
<path d="M17.667 5C17.667 6.10457 16.7716 7 15.667 7C14.5624 7 13.667 6.10457 13.667 5C13.667 3.89543 14.5624 3 15.667 3C16.7716 3 17.667 3.89543 17.667 5Z" fill="#6A93FF"/>
<path d="M13.667 12C13.667 9.79086 11.8761 8 9.66699 8C7.45785 8 5.66699 9.79086 5.66699 12V15H13.667V12Z" fill="#6A93FF"/>
<path d="M5.66699 5C5.66699 6.10457 4.77156 7 3.66699 7C2.56242 7 1.66699 6.10457 1.66699 5C1.66699 3.89543 2.56242 3 3.66699 3C4.77156 3 5.66699 3.89543 5.66699 5Z" fill="#6A93FF"/>
<path d="M15.667 15V12C15.667 10.9459 15.3951 9.9552 14.9177 9.09432C15.1572 9.03275 15.4083 9 15.667 9C17.3238 9 18.667 10.3431 18.667 12V15H15.667Z" fill="#6A93FF"/>
<path d="M4.41625 9.09432C3.93884 9.9552 3.66699 10.9459 3.66699 12V15H0.666992V12C0.666992 10.3431 2.01014 9 3.66699 9C3.9257 9 4.17676 9.03275 4.41625 9.09432Z" fill="#6A93FF"/>
</svg>
