<svg width="17" height="14" viewBox="0 0 17 14" fill="none" xmlns="http://www.w3.org/2000/svg">
<path d="M5.33301 0C4.78072 0 4.33301 0.447715 4.33301 1C4.33301 1.55228 4.78072 2 5.33301 2H11.333C11.8853 2 12.333 1.55228 12.333 1C12.333 0.447715 11.8853 0 11.333 0H5.33301Z" fill="#6A93FF"/>
<path d="M2.33301 4C2.33301 3.44772 2.78072 3 3.33301 3H13.333C13.8853 3 14.333 3.44772 14.333 4C14.333 4.55228 13.8853 5 13.333 5H3.33301C2.78072 5 2.33301 4.55228 2.33301 4Z" fill="#6A93FF"/>
<path d="M0.333008 8C0.333008 6.89543 1.22844 6 2.33301 6H14.333C15.4376 6 16.333 6.89543 16.333 8V12C16.333 13.1046 15.4376 14 14.333 14H2.33301C1.22844 14 0.333008 13.1046 0.333008 12V8Z" fill="#6A93FF"/>
</svg>
