<svg width="17" height="14" viewBox="0 0 17 14" fill="none" xmlns="http://www.w3.org/2000/svg">
<path d="M5.3335 0C4.78121 0 4.3335 0.447715 4.3335 1C4.3335 1.55228 4.78121 2 5.3335 2H11.3335C11.8858 2 12.3335 1.55228 12.3335 1C12.3335 0.447715 11.8858 0 11.3335 0H5.3335Z" fill="#B0B0B0"/>
<path d="M2.3335 4C2.3335 3.44772 2.78121 3 3.3335 3H13.3335C13.8858 3 14.3335 3.44772 14.3335 4C14.3335 4.55228 13.8858 5 13.3335 5H3.3335C2.78121 5 2.3335 4.55228 2.3335 4Z" fill="#B0B0B0"/>
<path d="M0.333496 8C0.333496 6.89543 1.22893 6 2.3335 6H14.3335C15.4381 6 16.3335 6.89543 16.3335 8V12C16.3335 13.1046 15.4381 14 14.3335 14H2.3335C1.22893 14 0.333496 13.1046 0.333496 12V8Z" fill="#B0B0B0"/>
</svg>
