<svg width="64" height="64" viewBox="0 0 64 64" fill="none" xmlns="http://www.w3.org/2000/svg">
<path fill-rule="evenodd" clip-rule="evenodd" d="M32 64C49.6731 64 64 49.6731 64 32C64 14.3269 49.6731 0 32 0C14.3269 0 0 14.3269 0 32C0 49.6731 14.3269 64 32 64ZM46.8284 26.8284C48.3905 25.2663 48.3905 22.7337 46.8284 21.1716C45.2663 19.6095 42.7337 19.6095 41.1716 21.1716L28 34.3431L22.8284 29.1716C21.2663 27.6095 18.7337 27.6095 17.1716 29.1716C15.6095 30.7337 15.6095 33.2663 17.1716 34.8284L25.1716 42.8284C26.7337 44.3905 29.2663 44.3905 30.8284 42.8284L46.8284 26.8284Z" fill="#6A93FF"/>
</svg>
