<svg width="20" height="20" viewBox="0 0 20 20" fill="none" xmlns="http://www.w3.org/2000/svg">
<path fill-rule="evenodd" clip-rule="evenodd" d="M12.2975 2.18417C13.0292 1.45239 14.0217 1.04128 15.0566 1.04128C16.0915 1.04128 17.084 1.45239 17.8158 2.18417C18.5476 2.91594 18.9587 3.90845 18.9587 4.94333C18.9587 5.97822 18.5476 6.97072 17.8158 7.7025L9.91079 15.6075C9.45912 16.0592 9.19412 16.3242 8.89745 16.555C8.54912 16.8275 8.17245 17.0608 7.77245 17.2508C7.43412 17.4117 7.07745 17.5308 6.47245 17.7325L3.69579 18.6575L3.02745 18.8808C2.76164 18.9696 2.47637 18.9825 2.20362 18.9182C1.93087 18.8539 1.68144 18.7148 1.48328 18.5167C1.28513 18.3185 1.1461 18.0691 1.08178 17.7963C1.01745 17.5236 1.03038 17.2383 1.11912 16.9725L2.26745 13.5283C2.46912 12.9225 2.58829 12.5658 2.74912 12.2267C2.93995 11.8275 3.17245 11.4508 3.44495 11.1017C3.67495 10.8067 3.94079 10.5408 4.39245 10.0892L12.2975 2.18417ZM3.66662 17.3508L6.03412 16.5608C6.69329 16.3408 6.97329 16.2467 7.23412 16.1225C7.55079 15.9708 7.85079 15.7858 8.12829 15.57C8.35579 15.3917 8.56579 15.1842 9.05745 14.6925L15.3658 8.38417C14.5009 8.07769 13.7158 7.58104 13.0683 6.93083C12.4186 6.28323 11.9226 5.49811 11.6166 4.63333L5.30829 10.9417C4.81662 11.4325 4.60829 11.6417 4.43079 11.87C4.21499 12.1473 4.02975 12.4471 3.87829 12.7642C3.75412 13.025 3.65995 13.305 3.43995 13.9642L2.64995 16.3333L3.66662 17.3508ZM12.6291 3.61917C12.6583 3.765 12.7058 3.96333 12.7866 4.19417C13.0303 4.89174 13.4292 5.52488 13.9533 6.04583C14.474 6.56977 15.1068 6.96868 15.8041 7.2125C16.0358 7.29333 16.2341 7.34083 16.38 7.37L16.9316 6.81833C17.426 6.32045 17.7029 5.64691 17.7017 4.94526C17.7005 4.2436 17.4212 3.57103 16.9251 3.07488C16.4289 2.57874 15.7564 2.29946 15.0547 2.29823C14.353 2.297 13.6795 2.57393 13.1816 3.06833L12.6291 3.61917Z" fill="#457B9D"/>
</svg>
