<svg width="138" height="48" viewBox="0 0 138 48" fill="none" xmlns="http://www.w3.org/2000/svg">
<rect x="1" y="1" width="136" height="46" fill="white"/>
<rect x="1" y="1" width="136" height="46" stroke="#457B9D" stroke-width="2"/>
<path d="M42.418 22H39.4688V16.0625H33.1211V22H30.1719V7.9082H33.1211V13.6309H39.4688V7.9082H42.418V22ZM78.7266 22V11.5312H81.5781V22H78.7266ZM80.1523 10.3789C79.293 10.3789 78.6289 9.72461 78.6289 8.9043C78.6289 8.07422 79.293 7.42969 80.1523 7.42969C81.0117 7.42969 81.6758 8.07422 81.6758 8.9043C81.6758 9.72461 81.0117 10.3789 80.1523 10.3789Z" fill="#457B9D"/>
<path d="M48.3262 20.1055C49.5664 20.1055 50.5918 19.2949 50.5918 18.1621V17.4004L48.3848 17.5371C47.3203 17.6152 46.7148 18.0938 46.7148 18.8359C46.7148 19.6172 47.3594 20.1055 48.3262 20.1055ZM47.3887 22.166C45.3965 22.166 43.8828 20.877 43.8828 18.9922C43.8828 17.0879 45.3477 15.9844 47.9551 15.8281L50.5918 15.6719V14.9785C50.5918 14.002 49.9082 13.4355 48.834 13.4355C47.7695 13.4355 47.0957 13.9629 46.959 14.7344H44.3516C44.459 12.7031 46.1875 11.3066 48.9609 11.3066C51.6465 11.3066 53.3945 12.6934 53.3945 14.8027V22H50.6406V20.3984H50.582C49.9961 21.5117 48.6973 22.166 47.3887 22.166ZM55.2402 22V11.5312H57.9941V13.3965H58.0527C58.6094 12.0977 59.7129 11.3359 61.3242 11.3359C63.6484 11.3359 64.957 12.8008 64.957 15.252V22H62.1055V15.8477C62.1055 14.4805 61.4609 13.6992 60.1816 13.6992C58.9023 13.6992 58.0918 14.6367 58.0918 15.9941V22H55.2402ZM70.6504 22.166C68.0332 22.166 66.3828 20.0957 66.3828 16.7461C66.3828 13.4258 68.043 11.3652 70.6699 11.3652C72.1836 11.3652 73.3555 12.166 73.8633 13.3281H73.9219V7.9082H76.7734V22H73.9609V20.2031H73.9121C73.4043 21.3555 72.1934 22.166 70.6504 22.166ZM71.6172 13.6504C70.1816 13.6504 69.3027 14.8516 69.3027 16.7656C69.3027 18.6895 70.1816 19.8711 71.6172 19.8711C73.0332 19.8711 73.9414 18.6797 73.9414 16.7656C73.9414 14.8613 73.0332 13.6504 71.6172 13.6504Z" fill="#E63946"/>
<path d="M83.418 40H80.4688V34.0625H74.1211V40H71.1719V25.9082H74.1211V31.6309H80.4688V25.9082H83.418V40ZM85.5664 40V29.5312H88.418V40H85.5664ZM86.9922 28.3789C86.1328 28.3789 85.4688 27.7246 85.4688 26.9043C85.4688 26.0742 86.1328 25.4297 86.9922 25.4297C87.8516 25.4297 88.5156 26.0742 88.5156 26.9043C88.5156 27.7246 87.8516 28.3789 86.9922 28.3789ZM99.8926 29.5312L96.2988 40H93.0762L89.4531 29.5312H92.5098L94.6875 37.4805H94.7461L96.9141 29.5312H99.8926ZM105.293 31.416C104.043 31.416 103.145 32.3633 103.047 33.6719H107.49C107.432 32.334 106.562 31.416 105.293 31.416ZM107.529 36.7969H110.146C109.834 38.8477 107.959 40.2246 105.371 40.2246C102.148 40.2246 100.215 38.1641 100.215 34.8145C100.215 31.4746 102.168 29.3066 105.264 29.3066C108.311 29.3066 110.234 31.3672 110.234 34.5508V35.4199H103.018V35.5957C103.018 37.0898 103.965 38.1152 105.42 38.1152C106.465 38.1152 107.266 37.5977 107.529 36.7969Z" fill="#457B9D"/>
</svg>
